<mxfile host="app.diagrams.net" modified="2024-03-08T18:54:04.974Z" agent="Mozilla/5.0 (Macintosh; Intel Mac OS X 10_15_7) AppleWebKit/537.36 (KHTML, like Gecko) Chrome/122.0.0.0 Safari/537.36" etag="aI6HL5SomEfpOLD3S9JZ" version="24.0.2" type="device">
  <diagram name="Page-1" id="7V0q1iXziWjbJMVkyrLb">
    <mxGraphModel dx="1904" dy="1445" grid="0" gridSize="10" guides="1" tooltips="1" connect="1" arrows="1" fold="1" page="1" pageScale="1" pageWidth="850" pageHeight="1100" math="0" shadow="0">
      <root>
        <mxCell id="0" />
        <mxCell id="1" parent="0" />
        <mxCell id="DPINjTwNFfzq0MEsFXgv-1" value="AWS Cloud" style="sketch=0;outlineConnect=0;gradientColor=none;html=1;whiteSpace=wrap;fontSize=12;fontStyle=0;shape=mxgraph.aws4.group;grIcon=mxgraph.aws4.group_aws_cloud;strokeColor=#AAB7B8;fillColor=none;verticalAlign=top;align=left;spacingLeft=30;fontColor=#AAB7B8;dashed=0;" parent="1" vertex="1">
          <mxGeometry x="160" y="280" width="420" height="577" as="geometry" />
        </mxCell>
        <mxCell id="DPINjTwNFfzq0MEsFXgv-10" style="edgeStyle=orthogonalEdgeStyle;rounded=0;orthogonalLoop=1;jettySize=auto;html=1;" parent="1" source="DPINjTwNFfzq0MEsFXgv-2" edge="1">
          <mxGeometry relative="1" as="geometry">
            <mxPoint x="200" y="629" as="targetPoint" />
          </mxGeometry>
        </mxCell>
        <mxCell id="DPINjTwNFfzq0MEsFXgv-2" value="Github" style="dashed=0;outlineConnect=0;html=1;align=center;labelPosition=center;verticalLabelPosition=bottom;verticalAlign=top;shape=mxgraph.weblogos.github" parent="1" vertex="1">
          <mxGeometry x="47" y="591.5" width="75" height="75" as="geometry" />
        </mxCell>
        <mxCell id="DPINjTwNFfzq0MEsFXgv-15" style="edgeStyle=orthogonalEdgeStyle;rounded=0;orthogonalLoop=1;jettySize=auto;html=1;" parent="1" target="DPINjTwNFfzq0MEsFXgv-8" edge="1">
          <mxGeometry relative="1" as="geometry">
            <mxPoint x="340" y="489" as="sourcePoint" />
          </mxGeometry>
        </mxCell>
        <mxCell id="DPINjTwNFfzq0MEsFXgv-21" style="edgeStyle=orthogonalEdgeStyle;rounded=0;orthogonalLoop=1;jettySize=auto;html=1;" parent="1" source="DPINjTwNFfzq0MEsFXgv-8" target="DPINjTwNFfzq0MEsFXgv-20" edge="1">
          <mxGeometry relative="1" as="geometry" />
        </mxCell>
        <mxCell id="DPINjTwNFfzq0MEsFXgv-8" value="Amazon Route53" style="sketch=0;points=[[0,0,0],[0.25,0,0],[0.5,0,0],[0.75,0,0],[1,0,0],[0,1,0],[0.25,1,0],[0.5,1,0],[0.75,1,0],[1,1,0],[0,0.25,0],[0,0.5,0],[0,0.75,0],[1,0.25,0],[1,0.5,0],[1,0.75,0]];outlineConnect=0;fontColor=#232F3E;fillColor=#8C4FFF;strokeColor=#ffffff;dashed=0;verticalLabelPosition=bottom;verticalAlign=top;align=center;html=1;fontSize=12;fontStyle=0;aspect=fixed;shape=mxgraph.aws4.resourceIcon;resIcon=mxgraph.aws4.route_53;" parent="1" vertex="1">
          <mxGeometry x="200" y="450" width="78" height="78" as="geometry" />
        </mxCell>
        <mxCell id="DPINjTwNFfzq0MEsFXgv-9" value="AWS Certificate&lt;br&gt;Manager" style="sketch=0;points=[[0,0,0],[0.25,0,0],[0.5,0,0],[0.75,0,0],[1,0,0],[0,1,0],[0.25,1,0],[0.5,1,0],[0.75,1,0],[1,1,0],[0,0.25,0],[0,0.5,0],[0,0.75,0],[1,0.25,0],[1,0.5,0],[1,0.75,0]];outlineConnect=0;fontColor=#232F3E;fillColor=#DD344C;strokeColor=#ffffff;dashed=0;verticalLabelPosition=bottom;verticalAlign=top;align=center;html=1;fontSize=12;fontStyle=0;aspect=fixed;shape=mxgraph.aws4.resourceIcon;resIcon=mxgraph.aws4.certificate_manager_3;" parent="1" vertex="1">
          <mxGeometry x="200" y="310" width="78" height="78" as="geometry" />
        </mxCell>
        <mxCell id="DPINjTwNFfzq0MEsFXgv-20" value="User" style="sketch=0;outlineConnect=0;fontColor=#232F3E;gradientColor=none;fillColor=#232F3D;strokeColor=none;dashed=0;verticalLabelPosition=bottom;verticalAlign=top;align=center;html=1;fontSize=12;fontStyle=0;aspect=fixed;pointerEvents=1;shape=mxgraph.aws4.user;" parent="1" vertex="1">
          <mxGeometry x="47" y="450" width="78" height="78" as="geometry" />
        </mxCell>
        <mxCell id="DPINjTwNFfzq0MEsFXgv-29" style="edgeStyle=orthogonalEdgeStyle;rounded=0;orthogonalLoop=1;jettySize=auto;html=1;" parent="1" source="DPINjTwNFfzq0MEsFXgv-22" edge="1">
          <mxGeometry relative="1" as="geometry">
            <mxPoint x="85" y="698" as="targetPoint" />
          </mxGeometry>
        </mxCell>
        <mxCell id="DPINjTwNFfzq0MEsFXgv-22" value="Dev" style="sketch=0;outlineConnect=0;fontColor=#232F3E;gradientColor=none;fillColor=#232F3D;strokeColor=none;dashed=0;verticalLabelPosition=bottom;verticalAlign=top;align=center;html=1;fontSize=12;fontStyle=0;aspect=fixed;pointerEvents=1;shape=mxgraph.aws4.user;" parent="1" vertex="1">
          <mxGeometry x="45.5" y="730" width="78" height="78" as="geometry" />
        </mxCell>
        <mxCell id="DPINjTwNFfzq0MEsFXgv-26" style="edgeStyle=orthogonalEdgeStyle;rounded=0;orthogonalLoop=1;jettySize=auto;html=1;" parent="1" source="DPINjTwNFfzq0MEsFXgv-24" target="DPINjTwNFfzq0MEsFXgv-22" edge="1">
          <mxGeometry relative="1" as="geometry" />
        </mxCell>
        <mxCell id="DPINjTwNFfzq0MEsFXgv-24" value="Amazon SNS" style="sketch=0;points=[[0,0,0],[0.25,0,0],[0.5,0,0],[0.75,0,0],[1,0,0],[0,1,0],[0.25,1,0],[0.5,1,0],[0.75,1,0],[1,1,0],[0,0.25,0],[0,0.5,0],[0,0.75,0],[1,0.25,0],[1,0.5,0],[1,0.75,0]];outlineConnect=0;fontColor=#232F3E;fillColor=#E7157B;strokeColor=#ffffff;dashed=0;verticalLabelPosition=bottom;verticalAlign=top;align=center;html=1;fontSize=12;fontStyle=0;aspect=fixed;shape=mxgraph.aws4.resourceIcon;resIcon=mxgraph.aws4.sns;" parent="1" vertex="1">
          <mxGeometry x="200" y="730" width="78" height="78" as="geometry" />
        </mxCell>
        <mxCell id="DPINjTwNFfzq0MEsFXgv-25" style="edgeStyle=orthogonalEdgeStyle;rounded=0;orthogonalLoop=1;jettySize=auto;html=1;entryX=0.5;entryY=0;entryDx=0;entryDy=0;entryPerimeter=0;" parent="1" target="DPINjTwNFfzq0MEsFXgv-24" edge="1">
          <mxGeometry relative="1" as="geometry">
            <mxPoint x="239" y="690" as="sourcePoint" />
          </mxGeometry>
        </mxCell>
        <mxCell id="DPINjTwNFfzq0MEsFXgv-27" style="edgeStyle=orthogonalEdgeStyle;rounded=0;orthogonalLoop=1;jettySize=auto;html=1;entryX=0.5;entryY=0;entryDx=0;entryDy=0;entryPerimeter=0;" parent="1" target="DPINjTwNFfzq0MEsFXgv-8" edge="1">
          <mxGeometry relative="1" as="geometry">
            <mxPoint x="239" y="430" as="sourcePoint" />
          </mxGeometry>
        </mxCell>
        <mxCell id="Iw6IQCgnjjC6bGtOU1Hg-2" style="edgeStyle=orthogonalEdgeStyle;rounded=0;orthogonalLoop=1;jettySize=auto;html=1;" parent="1" source="Iw6IQCgnjjC6bGtOU1Hg-1" edge="1">
          <mxGeometry relative="1" as="geometry">
            <mxPoint x="379" y="692" as="targetPoint" />
          </mxGeometry>
        </mxCell>
        <mxCell id="q9lsJixDyhJBHbiwm2dp-2" value="" style="edgeStyle=orthogonalEdgeStyle;rounded=0;orthogonalLoop=1;jettySize=auto;html=1;" edge="1" parent="1" source="Iw6IQCgnjjC6bGtOU1Hg-1">
          <mxGeometry relative="1" as="geometry">
            <mxPoint x="379" y="651" as="targetPoint" />
          </mxGeometry>
        </mxCell>
        <mxCell id="Iw6IQCgnjjC6bGtOU1Hg-1" value="SSM Parameter&lt;div&gt;Store&lt;/div&gt;" style="sketch=0;outlineConnect=0;fontColor=#232F3E;gradientColor=none;fillColor=#E7157B;strokeColor=none;dashed=0;verticalLabelPosition=bottom;verticalAlign=top;align=center;html=1;fontSize=12;fontStyle=0;aspect=fixed;pointerEvents=1;shape=mxgraph.aws4.parameter_store;" parent="1" vertex="1">
          <mxGeometry x="341.5" y="730" width="75" height="78" as="geometry" />
        </mxCell>
      </root>
    </mxGraphModel>
  </diagram>
</mxfile>
